<?xml version="1.0" standalone="no"?>
<!DOCTYPE svg PUBLIC "-//W3C//DTD SVG 20010904//EN"
 "http://www.w3.org/TR/2001/REC-SVG-20010904/DTD/svg10.dtd">
<svg version="1.0" xmlns="http://www.w3.org/2000/svg"
 width="290.000000pt" height="350.000000pt" viewBox="0 0 313.000000 358.000000"
 preserveAspectRatio="xMidYMid meet">

<g transform="translate(0.000000,358.000000) scale(0.100000,-0.100000)"
fill="#0a0a0a" stroke="none">
<path d="M2082 3296 c-95 -31 -161 -112 -182 -222 -36 -190 42 -358 184 -399
145 -42 277 17 338 150 20 43 23 66 23 160 0 119 -8 151 -58 221 -58 83 -199
125 -305 90z m148 -37 c60 -13 112 -54 142 -113 27 -51 36 -193 19 -271 -13
-57 -63 -125 -110 -149 -43 -23 -116 -29 -172 -16 -109 26 -169 124 -169 275
0 157 62 252 180 276 51 10 54 10 110 -2z"/>
<path d="M2787 3300 c-93 -24 -151 -72 -191 -160 -32 -72 -40 -144 -26 -227
29 -176 148 -268 323 -249 88 9 107 16 107 38 0 14 -5 18 -16 14 -9 -3 -46 -9
-83 -12 -97 -9 -166 13 -218 69 -53 58 -68 103 -68 212 0 149 55 236 167 270
65 19 101 19 166 0 54 -16 72 -14 72 10 0 29 -161 53 -233 35z"/>
<path d="M195 3033 c-59 -147 -116 -289 -126 -315 l-19 -48 24 0 c21 0 29 13
68 110 l43 110 129 -2 130 -3 42 -105 c37 -92 45 -105 67 -108 l26 -3 -34 88
c-169 432 -214 538 -227 541 -12 2 -43 -66 -123 -265z m181 35 c26 -71 45
-131 42 -134 -3 -2 -52 -3 -110 -2 l-104 3 55 143 c32 83 58 137 62 130 4 -7
29 -70 55 -140z"/>
<path d="M670 2986 l0 -316 103 0 c180 0 274 39 329 138 72 127 53 327 -39
414 -57 54 -115 72 -260 76 l-133 4 0 -316z m263 260 c68 -20 103 -50 134
-114 24 -49 28 -69 28 -142 0 -98 -15 -148 -58 -196 -52 -60 -98 -77 -219 -82
l-108 -5 0 277 0 276 88 0 c49 0 109 -6 135 -14z"/>
<path d="M1290 2985 c0 -308 0 -315 20 -315 19 0 20 7 20 155 l0 155 185 0
185 0 0 -155 c0 -148 1 -155 20 -155 20 0 20 7 20 315 0 308 0 315 -20 315
-19 0 -20 -7 -20 -140 l0 -140 -185 0 -185 0 0 140 c0 133 -1 140 -20 140 -20
0 -20 -7 -20 -315z"/>
<path  d="M1471 2073 l-60 -67 39 -45 c21 -25 49 -56 63 -69 l24 -23 61 67 61
68 -61 68 c-33 37 -61 68 -63 68 -2 0 -31 -30 -64 -67z"/>
<path fill="#1d1d1d" d="M1266 1833 l-46 -58 63 -63 62 -63 47 53 c26 29 48 58 48 63 0 11
-111 125 -122 125 -3 0 -27 -26 -52 -57z"/>
<path fill="#1d1d1d" d="M1687 1832 c-31 -32 -57 -61 -57 -66 0 -5 21 -33 46 -63 l46 -54 62
58 c33 32 62 61 64 64 3 7 -88 119 -97 119 -4 0 -32 -26 -64 -58z"/>
<path fill="#333" d="M1482 1614 l-51 -59 52 -52 51 -53 48 47 c26 26 48 52 48 58 0 5 -22
34 -48 64 l-48 54 -52 -59z"/>
<path fill="#4b4b4b" d="M1080 1588 l-35 -51 64 -58 64 -58 39 55 39 54 -33 29 c-57 50 -96
81 -99 81 -2 0 -20 -24 -39 -52z"/>
<path fill="#4b4b4b" d="M1882 1587 c-33 -28 -61 -55 -61 -58 -1 -9 69 -99 77 -99 4 0 34 24
66 53 l59 53 -31 47 c-18 25 -36 48 -41 51 -5 3 -36 -18 -69 -47z"/>
<path fill="#4b4b4b" d="M1302 1393 l-40 -48 50 -54 50 -55 34 40 c57 67 56 77 -17 134 l-37
30 -40 -47z"/>
<path fill="#4b4b4b" d="M1677 1399 c-26 -22 -47 -48 -47 -57 1 -9 18 -36 38 -60 l38 -42 53
50 53 50 -31 38 c-51 65 -52 65 -104 21z"/>
<path  fill="#656565" d="M927 1355 c-15 -25 -27 -49 -27 -54 0 -4 28 -29 61 -55 68 -53 67
-53 108 15 l21 37 -61 51 c-33 28 -64 51 -67 51 -4 0 -19 -20 -35 -45z"/>
<path  fill="#656565" d="M2043 1357 c-28 -23 -55 -45 -58 -49 -6 -6 33 -85 51 -107 2 -2 32
18 66 44 35 27 65 50 66 51 7 5 -53 104 -63 103 -5 0 -33 -19 -62 -42z"/>
<path fill="#4b4b4b" d="M1492 1207 c-23 -23 -42 -47 -42 -53 0 -5 19 -31 43 -58 l42 -48 43
50 c23 28 42 54 42 59 0 5 -19 28 -43 51 l-43 42 -42 -43z"/>
<path fill="#656565" d="M1141 1175 l-32 -45 53 -50 53 -49 22 26 c12 14 27 37 35 51 12 23
10 27 -37 68 -28 24 -53 44 -56 44 -3 0 -20 -20 -38 -45z"/>
<path fill="#656565" d="M1838 1179 c-27 -23 -48 -46 -48 -53 0 -7 14 -31 31 -54 l31 -42 48
42 c27 24 49 50 50 57 0 16 -49 91 -59 91 -3 -1 -27 -19 -53 -41z"/>
<path fill="#7f7f7f" d="M2186 1134 c-81 -55 -81 -54 -55 -107 l22 -46 59 41 c32 23 58 48 57
57 0 9 -8 32 -17 52 l-17 37 -49 -34z"/>
<path fill="#7f7f7f" d="M804 1115 c-9 -25 -15 -47 -13 -48 67 -49 109 -77 116 -77 5 0 19 20
30 44 l21 43 -58 42 c-33 22 -63 41 -69 41 -5 0 -17 -20 -27 -45z"/>
<path fill="#656565" d="M1321 1008 l-31 -42 47 -48 c26 -26 50 -48 53 -48 3 0 20 20 37 44
l31 44 -47 46 c-26 25 -50 46 -53 46 -3 0 -20 -19 -37 -42z"/>
<path fill="#656565" d="M1656 1004 l-46 -46 32 -44 c17 -24 34 -44 38 -44 3 0 27 22 53 48
l47 48 -31 42 c-17 23 -34 42 -39 42 -5 0 -29 -21 -54 -46z"/>
<path fill="#7f7f7f" d="M1019 968 l-22 -42 49 -43 c27 -23 53 -43 57 -43 4 0 16 19 26 43
l19 42 -46 42 c-26 23 -50 42 -54 43 -4 0 -17 -19 -29 -42z"/>
<path  fill="#7f7f7f" d="M1966 966 l-48 -42 21 -43 22 -42 30 18 c16 10 41 30 55 44 l26 27
-21 41 c-12 22 -25 41 -29 41 -4 -1 -29 -20 -56 -44z"/>
<path fill="#919191" d="M726 898 c-12 -45 -6 -56 53 -91 l60 -36 11 35 c6 18 9 38 6 43 -6 8
-111 71 -120 71 -2 0 -6 -10 -10 -22z"/>
<path fill="#919191" d="M2270 886 c-52 -31 -55 -35 -53 -71 2 -21 4 -40 7 -42 2 -2 31 13 66
33 58 35 61 39 56 67 -3 16 -6 33 -6 38 0 14 -12 10 -70 -25z"/>
<path fill="#656565" d="M1493 828 l-33 -40 20 -27 c55 -73 47 -71 90 -22 l39 45 -19 25 c-56
75 -54 74 -97 19z"/>
<path fill="#7f7f7f" d="M1195 823 l-25 -38 39 -35 c73 -67 68 -66 91 -20 l22 42 -34 35 c-54
57 -64 59 -93 16z"/>
<path fill="#7f7f7f" d="M1791 816 l-43 -43 21 -42 22 -42 49 43 c28 24 50 48 50 53 0 15 -38
75 -48 75 -4 0 -27 -20 -51 -44z"/>
<path fill="#919191" d="M936 792 c-3 -5 -10 -21 -15 -35 -10 -25 -7 -29 49 -66 l59 -39 10
30 c15 43 16 42 -31 74 -65 44 -66 45 -72 36z"/>
<path fill="#919191" d="M2068 759 l-57 -40 16 -33 15 -33 54 35 c56 36 62 51 41 89 l-13 23
-56 -41z"/>
<path fill="#7f7f7f" d="M1370 655 l-21 -35 32 -40 c18 -22 36 -40 40 -40 4 0 17 16 28 36
l21 36 -31 39 c-17 21 -34 39 -39 39 -5 0 -18 -16 -30 -35z"/>
<path fill="#7f7f7f" d="M1631 655 c-17 -20 -31 -38 -31 -40 0 -2 10 -20 21 -40 l22 -37 40
41 40 40 -24 35 c-13 20 -27 36 -30 36 -4 0 -21 -16 -38 -35z"/>
<path fill="#919191" d="M1101 638 c-6 -17 -10 -32 -9 -33 2 -1 25 -18 52 -38 27 -20 52 -37
57 -37 4 0 10 14 14 31 5 23 2 35 -12 48 -23 21 -79 61 -86 61 -3 0 -10 -14
-16 -32z"/>
<path fill="#919191" d="M1892 630 c-50 -39 -50 -40 -40 -74 l11 -35 44 31 c24 18 49 38 54
45 12 13 3 73 -11 73 -4 0 -31 -18 -58 -40z"/>
<path fill="#919191" d="M1511 501 c-26 -36 -26 -45 1 -81 24 -33 32 -31 53 11 14 26 14 32 0
58 -22 43 -31 45 -54 12z"/>
<path fill="#919191" d="M1281 493 c-11 -24 -9 -29 26 -65 20 -21 40 -38 44 -38 4 0 10 14 14
31 6 26 2 36 -26 65 -18 19 -36 34 -39 34 -4 0 -12 -12 -19 -27z"/>
<path fill="#919191" d="M1727 482 c-35 -36 -37 -40 -26 -70 l11 -32 42 43 c39 38 42 45 34
70 -6 15 -13 27 -17 27 -4 0 -24 -17 -44 -38z"/>
</g>
</svg>
